<svg id="隔离模式" xmlns="http://www.w3.org/2000/svg" viewBox="0 0 199.8 199.8"><defs><style>.cls-1{fill:#b3d1ee;}.cls-2{fill:#192751;}.cls-3{fill:#ee7321;}.cls-4{fill:#fff;}</style></defs><path class="cls-1" d="M131.48,198.06l-.79.09a288.11,288.11,0,0,1-61.58,0l-.85-.09A75.06,75.06,0,0,1,1.68,131.55h0A288.11,288.11,0,0,1,1.62,70l.17-1.58A75.05,75.05,0,0,1,68.38,1.73l.73-.08a288.11,288.11,0,0,1,61.58,0l.79.09a75,75,0,0,1,66.58,66.58l.09.79a288.11,288.11,0,0,1,0,61.58l-.09.79A75,75,0,0,1,131.48,198.06Z"/><path class="cls-2" d="M165.15,102.73V99.64a56.08,56.08,0,0,0-56.08-56.08H90.73A56.08,56.08,0,0,0,34.65,99.64v3.09a4.29,4.29,0,0,1-2.95,4,9,9,0,0,0-6,8.49v15.69a9,9,0,0,0,6.33,8.6,4.14,4.14,0,0,1,2.89,3.27A18.3,18.3,0,0,0,53,158.23h93.9a18.3,18.3,0,0,0,18.07-15.43,4.14,4.14,0,0,1,2.89-3.27,9,9,0,0,0,6.33-8.6V115.24a9,9,0,0,0-6-8.49A4.29,4.29,0,0,1,165.15,102.73Z"/><circle class="cls-3" cx="99.9" cy="26.98" r="12.23"/><path class="cls-4" d="M122.52,118.58H96.07a12.44,12.44,0,0,0-8.25,3.14l-7.66,6.82a1.73,1.73,0,0,1-2.88-1.29v-4.69a4.45,4.45,0,0,0-3.64-4.34,18.05,18.05,0,0,1-14.4-17.68h0a18,18,0,0,1,18-18h45.25a18,18,0,0,1,18,18h0A18,18,0,0,1,122.52,118.58Z"/></svg>